<svg width="637" height="688" viewBox="0 0 637 688" fill="none" xmlns="http://www.w3.org/2000/svg">
<g clip-path="url(#clip0_5_18)">
<rect width="645" height="688" fill="white"/>
<path fill-rule="evenodd" clip-rule="evenodd" d="M578.086 13.1897C354.407 60.6309 187.568 179.811 205.422 279.342C211.004 310.408 233.968 335.881 269.619 354.797L269.493 355.345L268.934 354.749L268.809 355.345C172.799 339.153 101.324 294.697 79.3922 226.664C55.4356 152.278 74.9479 69.6993 139.337 -1H-23V687.615C5.96014 684.438 35.5178 680.183 65.9242 673.714C289.574 626.253 456.442 507.103 438.559 407.562C432.967 376.515 410.042 351.023 374.305 332.087L374.478 331.539L375.047 332.174L375.172 331.558C471.183 347.77 542.647 392.226 564.589 460.239C588.595 534.664 569.005 617.243 504.567 688H667V-0.730866C638.05 2.46546 608.482 6.73963 578.086 13.1897Z" fill="#E40134"/>
</g>
<defs>
<clipPath id="clip0_5_18">
<rect width="636.8" height="688" fill="white"/>
</clipPath>
</defs>
</svg>
