<svg width="503" height="543" viewBox="0 0 503 543" fill="none" xmlns="http://www.w3.org/2000/svg">
<g clip-path="url(#clip0_6_171)">
<rect width="945" height="763" fill="white"/>
<path fill-rule="evenodd" clip-rule="evenodd" d="M450.295 10.6905C282.555 48.1134 157.441 142.126 170.83 220.639C175.016 245.144 192.237 265.238 218.972 280.16L218.878 280.593L218.459 280.122L218.365 280.593C146.365 267.82 92.7657 232.751 76.3191 179.085C58.3538 120.407 72.9863 55.2668 121.272 -0.502777H-0.46582V542.696C21.2517 540.19 43.4173 536.834 66.2193 531.731C233.937 494.292 359.072 400.303 345.662 321.782C341.468 297.292 324.277 277.183 297.477 262.246L297.607 261.813L298.033 262.315L298.128 261.828C370.127 274.617 423.719 309.685 440.173 363.336C458.175 422.044 443.485 487.185 395.162 543H516.972V-0.290477C495.263 2.23088 473.089 5.60246 450.295 10.6905Z" fill="#E40134"/>
</g>
<defs>
<clipPath id="clip0_6_171">
<rect width="503" height="543" fill="white"/>
</clipPath>
</defs>
</svg>
